<svg width="605" height="459" viewBox="0 0 605 459" fill="none" xmlns="http://www.w3.org/2000/svg">
<g clip-path="url(#clip0)">
<path opacity="0.1" d="M342.206 62.4906C303.426 62.5476 266.099 50.4667 230.396 37.046C194.692 23.6254 159.264 8.59692 121.205 2.22865C96.7288 -1.86483 68.8956 -1.48855 49.7625 13.3745C31.3454 27.6732 26.0122 51.339 23.439 73.2032C21.5039 89.6513 20.6116 106.915 27.8591 121.96C32.8914 132.405 41.5033 141.014 47.5732 150.968C68.7607 185.597 56.0191 229.833 35.4283 265.266C25.7736 281.891 14.4639 297.826 7.16447 315.403C-0.134933 332.98 -3.12836 352.911 4.3163 370.26C11.6935 387.455 28.3571 399.935 46.2399 408.458C82.5554 425.801 124.837 429.518 165.982 430.949C257.062 434.125 348.317 427.648 439.329 421.172C473.009 418.777 506.839 416.366 539.824 409.427C558.137 405.579 576.996 399.866 589.981 387.346C606.463 371.451 609.835 345.499 597.841 326.845C577.727 295.557 524.691 289.656 510.268 255.802C502.315 237.165 509.174 215.791 519.275 197.826C540.939 159.28 578.23 124.754 578.858 81.641C579.289 52.0346 559.896 23.1522 530.932 10.2845C500.572 -3.19321 459.178 0.273132 437.907 25.3927C416.035 51.2706 376.446 62.4507 342.206 62.4906Z" fill="#3F51B5"/>
<path d="M514.918 367.934C514.918 367.934 508.542 363.31 502.223 366.599C502.223 366.599 504.168 370.716 512.168 370.328L514.918 367.934Z" fill="#3F51B5"/>
<path d="M515.726 368.18C515.726 368.18 517.667 376.298 512.8 381.823C512.8 381.823 509.874 378.476 512.8 370.278L515.726 368.18Z" fill="#3F51B5"/>
<path d="M523.653 360.385C523.653 360.385 523.181 353.481 508.992 355.773C508.992 355.773 508.925 360.225 513.905 362.335C518.886 364.444 521.168 362.666 523.653 360.385Z" fill="#3F51B5"/>
<path d="M524.546 360.34C524.546 360.34 530.543 362.455 525.194 377.079C525.194 377.079 521.236 376.109 520.525 370.288C519.815 364.468 521.921 362.461 524.546 360.34Z" fill="#3F51B5"/>
<path d="M532.555 350.545C532.555 350.545 533.37 339.182 518.87 340.345C518.87 340.345 517.832 350.607 529.998 353.276L532.555 350.545Z" fill="#3F51B5"/>
<path d="M542.137 337.717C542.137 337.717 540.15 324.838 525.655 328.675C525.655 328.675 525.603 339.809 539.772 340.784L542.137 337.717Z" fill="#3F51B5"/>
<path d="M549.141 324.456C549.141 324.456 545.81 311.914 531.45 315.665C531.45 315.665 534.869 326.948 548.186 326.771L549.141 324.456Z" fill="#3F51B5"/>
<path d="M555.792 311.503C555.792 311.503 552.539 298.487 538.672 302.381C538.672 302.381 543.299 314.747 554.874 313.704L555.792 311.503Z" fill="#3F51B5"/>
<path d="M560.077 299.2C560.077 299.2 557.577 283.283 544.648 286.806C544.648 286.806 548.405 301.287 559.128 301.521L560.077 299.2Z" fill="#3F51B5"/>
<path d="M564.098 284.337C564.098 284.337 561.094 268.294 548.016 272.934C548.016 272.934 553.141 288.1 563.17 286.532L564.098 284.337Z" fill="#3F51B5"/>
<path d="M566.567 270.507C566.567 270.507 561.8 254.458 551.688 254.891C551.688 254.891 556.56 271.841 565.722 273.705L566.567 270.507Z" fill="#3F51B5"/>
<path d="M568.166 257.005C568.166 257.005 562.978 237.689 554.75 239.177C554.75 239.177 558.34 253.944 567.875 260.015L568.166 257.005Z" fill="#3F51B5"/>
<path d="M569.068 240.899C569.068 240.899 564.202 224.804 556.099 224.16C556.099 224.16 559.409 239.998 568.908 245.084L569.068 240.899Z" fill="#3F51B5"/>
<path d="M570.049 225.871C570.049 225.871 563.984 209.759 558.636 209.395C558.636 209.395 561.271 225.261 569.53 228.516L570.049 225.871Z" fill="#3F51B5"/>
<path d="M570.718 211.892C570.718 211.892 566.988 194.395 561.629 192.941C561.629 192.941 562.36 207.257 570.179 213.204L570.718 211.892Z" fill="#3F51B5"/>
<path d="M572.742 193.579C572.742 193.579 568.82 179.629 564.478 177.502C564.478 177.502 565.334 193.95 571.741 196.989L572.742 193.579Z" fill="#3F51B5"/>
<path d="M574.417 181.607L575.206 157.012C575.206 157.012 567.086 175.552 573.831 185.923L574.417 181.607Z" fill="#3F51B5"/>
<path d="M580.684 157.142C580.684 157.142 586.531 139.183 587.947 138.18C587.947 138.18 576.482 149.833 577.602 164.822L580.684 157.142Z" fill="#3F51B5"/>
<path d="M532.951 350.46C532.951 350.46 543.233 348.983 542.927 364.952C542.927 364.952 533.636 366.617 530.601 353.407L532.951 350.46Z" fill="#3F51B5"/>
<path d="M542.626 337.285C542.626 337.285 554.506 337.245 553.52 353.591C553.52 353.591 543.544 355.552 540.255 340.375L542.626 337.285Z" fill="#3F51B5"/>
<path d="M549.255 325.512C549.255 325.512 560.041 319.954 566.941 334.304C566.941 334.304 556.98 338.933 548.301 327.833L549.255 325.512Z" fill="#3F51B5"/>
<path d="M556.031 311.623C556.031 311.623 567.076 305.711 573.561 319.724C573.561 319.724 562.054 324.08 555.118 313.841L556.031 311.623Z" fill="#3F51B5"/>
<path d="M559.938 299.549C559.938 299.549 570.568 288.392 579.05 299.674C579.05 299.674 568.192 308.859 559.45 302.035L559.938 299.549Z" fill="#3F51B5"/>
<path d="M563.497 283.955C563.497 283.955 574.19 272.552 582.604 284.479C582.604 284.479 570.605 293.847 563.113 286.349L563.497 283.955Z" fill="#3F51B5"/>
<path d="M565.494 270.05C565.494 270.05 573.733 255.797 583.434 258.979C583.434 258.979 574.884 274.07 565.587 273.397L565.494 270.05Z" fill="#3F51B5"/>
<path d="M567.922 256.915C567.922 256.915 576.222 238.968 584.077 242.092C584.077 242.092 578.09 255.889 567.709 259.942L567.922 256.915Z" fill="#3F51B5"/>
<path d="M568.498 239.965C568.498 239.965 577.032 225.837 585.027 227.564C585.027 227.564 578.049 241.892 567.668 244.052L568.498 239.965Z" fill="#3F51B5"/>
<path d="M569.162 225.557C569.162 225.557 575.777 209.702 581.151 209.594C581.151 209.594 577.976 225.335 569.608 228.248L569.162 225.557Z" fill="#3F51B5"/>
<path d="M570.459 211.55C570.459 211.55 577.81 195.495 583.335 195.461C583.335 195.461 579.574 209.189 570.703 212.958L570.459 211.55Z" fill="#3F51B5"/>
<path d="M571.563 194.582C571.563 194.582 577.063 181.298 581.618 179.793C581.618 179.793 578.868 195.984 572.17 198.105L571.563 194.582Z" fill="#3F51B5"/>
<path d="M575.071 181.123L587.362 160.547C587.362 160.547 584.212 180.843 573.276 185.062L575.071 181.123Z" fill="#3F51B5"/>
<path d="M583.506 158.801C583.506 158.801 597.789 147.969 598.307 146.219C598.307 146.219 591.044 161.39 577.556 164.069L583.506 158.801Z" fill="#3F51B5"/>
<path d="M584.362 153.928C584.362 153.928 600.761 136.602 604.948 136.619C604.948 136.619 591.423 137.298 583.968 153.004L584.362 153.928Z" fill="#3F51B5"/>
<path d="M571.725 197.154L572.321 197.239C575.403 170.734 579.896 155.05 584.969 153.129L584.772 152.502C579.392 154.554 574.868 169.999 571.725 197.154Z" fill="#444053"/>
<path d="M567.19 260.541L568.093 260.62C568.285 258.146 568.43 255.615 568.529 253.089C569.39 231.151 570.723 211.003 572.477 195.9L571.958 195.188C570.199 210.324 568.487 231.077 567.626 253.049C567.528 255.558 567.382 258.078 567.19 260.541Z" fill="#444053"/>
<path d="M498.087 380.581C498.243 380.506 514.134 372.707 530.626 354.11C540.289 343.217 548.317 330.709 554.413 317.052C562.039 299.988 566.687 279.019 568.244 258.648L567.305 259.133C563.803 304.857 544.862 336.1 529.801 353.118C513.469 371.55 497.755 379.269 497.6 379.343L498.087 380.581Z" fill="#444053"/>
<path d="M539.233 48.5918H40.7358C39.558 48.5918 38.4284 49.106 37.5956 50.0212C36.7628 50.9364 36.2949 52.1777 36.2949 53.472V67.6909H543.674V53.472C543.674 52.1777 543.206 50.9364 542.373 50.0212C541.54 49.106 540.411 48.5918 539.233 48.5918Z" fill="#3F3D56"/>
<path d="M36.2949 67.6914V387.667C36.2949 390.277 37.2383 392.78 38.9176 394.625C40.5969 396.471 42.8744 397.507 45.2493 397.507H534.719C537.094 397.507 539.372 396.471 541.051 394.625C542.73 392.78 543.674 390.277 543.674 387.667V67.6914H36.2949Z" fill="white"/>
<path opacity="0.8" d="M44.331 60.2797C45.4771 60.2797 46.4062 59.2587 46.4062 57.9992C46.4062 56.7398 45.4771 55.7188 44.331 55.7188C43.1849 55.7188 42.2559 56.7398 42.2559 57.9992C42.2559 59.2587 43.1849 60.2797 44.331 60.2797Z" fill="#FA5959"/>
<path opacity="0.8" d="M50.0371 60.2797C51.1832 60.2797 52.1123 59.2587 52.1123 57.9992C52.1123 56.7398 51.1832 55.7188 50.0371 55.7188C48.891 55.7188 47.9619 56.7398 47.9619 57.9992C47.9619 59.2587 48.891 60.2797 50.0371 60.2797Z" fill="#FED253"/>
<path opacity="0.8" d="M55.7441 60.2797C56.8902 60.2797 57.8193 59.2587 57.8193 57.9992C57.8193 56.7398 56.8902 55.7188 55.7441 55.7188C54.598 55.7188 53.6689 56.7398 53.6689 57.9992C53.6689 59.2587 54.598 60.2797 55.7441 60.2797Z" fill="#8CCF4D"/>
<path opacity="0.05" d="M491.229 121.043H83.458V318.089H491.229V121.043Z" fill="black"/>
<path d="M488.116 122.537H86.5703V315.239H488.116V122.537Z" fill="#3F3D56"/>
<path d="M196.036 172.131C188.135 172.131 180.412 174.706 173.843 179.529C167.273 184.353 162.153 191.209 159.13 199.231C156.106 207.252 155.315 216.079 156.856 224.595C158.398 233.11 162.202 240.932 167.789 247.072C173.376 253.211 180.494 257.392 188.243 259.086C195.992 260.78 204.024 259.911 211.323 256.588C218.622 253.265 224.861 247.639 229.251 240.42C233.64 233.2 235.983 224.713 235.983 216.03C235.983 210.265 234.95 204.557 232.942 199.231C230.935 193.905 227.992 189.065 224.283 184.989C220.573 180.912 216.17 177.679 211.323 175.473C206.476 173.266 201.282 172.131 196.036 172.131ZM203.2 217.085V237.872H189.079V217.085C187.125 215.459 185.684 213.2 184.961 210.627C184.238 208.053 184.269 205.295 185.049 202.742C185.83 200.188 187.32 197.969 189.31 196.396C191.3 194.824 193.689 193.978 196.14 193.978C198.591 193.978 200.98 194.824 202.969 196.396C204.959 197.969 206.45 200.188 207.23 202.742C208.01 205.295 208.041 208.053 207.318 210.627C206.595 213.2 205.155 215.459 203.2 217.085Z" fill="#3F51B5"/>
<path opacity="0.05" d="M196.036 172.131C188.135 172.131 180.412 174.706 173.843 179.529C167.273 184.353 162.153 191.209 159.13 199.231C156.106 207.252 155.315 216.079 156.856 224.595C158.398 233.11 162.202 240.932 167.789 247.072C173.376 253.211 180.494 257.392 188.243 259.086C195.992 260.78 204.024 259.911 211.323 256.588C218.622 253.265 224.861 247.639 229.251 240.42C233.64 233.2 235.983 224.713 235.983 216.03C235.983 210.265 234.95 204.557 232.942 199.231C230.935 193.905 227.992 189.065 224.283 184.989C220.573 180.912 216.17 177.679 211.323 175.473C206.476 173.266 201.282 172.131 196.036 172.131ZM203.2 217.085V237.872H189.079V217.085C187.125 215.459 185.684 213.2 184.961 210.627C184.238 208.053 184.269 205.295 185.049 202.742C185.83 200.188 187.32 197.969 189.31 196.396C191.3 194.824 193.689 193.978 196.14 193.978C198.591 193.978 200.98 194.824 202.969 196.396C204.959 197.969 206.45 200.188 207.23 202.742C208.01 205.295 208.041 208.053 207.318 210.627C206.595 213.2 205.155 215.459 203.2 217.085Z" fill="black"/>
<path d="M196.036 159.588C185.878 159.588 175.948 162.898 167.502 169.1C159.056 175.302 152.473 184.117 148.585 194.431C144.698 204.744 143.681 216.093 145.663 227.041C147.644 237.99 152.536 248.047 159.719 255.941C166.902 263.834 176.053 269.21 186.016 271.388C195.979 273.565 206.306 272.448 215.691 268.176C225.076 263.904 233.097 256.669 238.741 247.388C244.384 238.106 247.397 227.193 247.397 216.03C247.397 201.061 241.985 186.704 232.354 176.119C222.722 165.534 209.658 159.588 196.036 159.588ZM205.245 217.387V244.109H187.087V217.387C184.574 215.297 182.721 212.391 181.791 209.082C180.861 205.772 180.9 202.225 181.903 198.941C182.907 195.657 184.823 192.802 187.382 190.78C189.941 188.757 193.014 187.669 196.166 187.669C199.318 187.669 202.391 188.757 204.95 190.78C207.509 192.802 209.425 195.657 210.429 198.941C211.432 202.225 211.471 205.772 210.541 209.082C209.611 212.391 207.758 215.297 205.245 217.387Z" fill="#3F51B5"/>
<path d="M434.681 208.625H268.667V228.009H434.681V208.625Z" fill="white"/>
<path d="M434.68 243.973H398.884V263.357H434.68V243.973Z" fill="#3F51B5"/>
<path d="M285.009 218.026H282.005L284.677 215.096C284.725 215.041 284.751 214.969 284.751 214.893C284.751 214.818 284.725 214.745 284.677 214.691C284.653 214.664 284.624 214.643 284.592 214.628C284.561 214.614 284.527 214.606 284.493 214.606C284.458 214.606 284.424 214.614 284.393 214.628C284.361 214.643 284.333 214.664 284.308 214.691L281.637 217.627V214.32C281.637 214.245 281.609 214.172 281.561 214.119C281.512 214.065 281.446 214.035 281.377 214.035C281.309 214.037 281.244 214.067 281.195 214.12C281.147 214.173 281.119 214.245 281.118 214.32V217.627L278.451 214.674C278.427 214.647 278.398 214.626 278.367 214.611C278.335 214.597 278.301 214.589 278.267 214.589C278.233 214.589 278.199 214.597 278.167 214.611C278.136 214.626 278.107 214.647 278.083 214.674C278.035 214.728 278.008 214.801 278.008 214.876C278.008 214.952 278.035 215.024 278.083 215.078L280.755 218.009H277.746C277.677 218.01 277.612 218.041 277.564 218.094C277.515 218.147 277.488 218.219 277.486 218.294C277.486 218.37 277.514 218.442 277.562 218.496C277.611 218.549 277.677 218.579 277.746 218.579H280.755L278.083 221.515C278.035 221.569 278.008 221.642 278.008 221.718C278.008 221.793 278.035 221.866 278.083 221.92C278.133 221.971 278.199 222 278.267 222C278.335 222 278.401 221.971 278.451 221.92L281.118 218.984V222.285C281.118 222.36 281.145 222.433 281.194 222.486C281.242 222.54 281.308 222.57 281.377 222.57C281.446 222.57 281.512 222.54 281.561 222.486C281.609 222.433 281.637 222.36 281.637 222.285V218.984L284.308 221.92C284.358 221.971 284.424 222 284.493 222C284.561 222 284.627 221.971 284.677 221.92C284.725 221.866 284.751 221.793 284.751 221.718C284.751 221.642 284.725 221.569 284.677 221.515L282.005 218.579H285.009C285.078 218.579 285.144 218.549 285.192 218.496C285.241 218.442 285.268 218.37 285.268 218.294C285.264 218.221 285.235 218.153 285.187 218.103C285.139 218.054 285.075 218.026 285.009 218.026Z" fill="#3F51B5"/>
<path d="M295.903 218.026H292.9L295.571 215.096C295.619 215.041 295.646 214.969 295.646 214.893C295.646 214.818 295.619 214.745 295.571 214.691C295.547 214.664 295.519 214.643 295.487 214.628C295.455 214.614 295.421 214.606 295.387 214.606C295.353 214.606 295.319 214.614 295.287 214.628C295.256 214.643 295.227 214.664 295.203 214.691L292.531 217.627V214.32C292.531 214.245 292.504 214.172 292.455 214.119C292.407 214.065 292.341 214.035 292.272 214.035C292.203 214.037 292.138 214.067 292.09 214.12C292.041 214.173 292.014 214.245 292.012 214.32V217.627L289.346 214.674C289.322 214.647 289.293 214.626 289.261 214.611C289.23 214.597 289.196 214.589 289.162 214.589C289.127 214.589 289.093 214.597 289.062 214.611C289.03 214.626 289.002 214.647 288.977 214.674C288.93 214.728 288.903 214.801 288.903 214.876C288.903 214.952 288.93 215.024 288.977 215.078L291.649 218.009H288.64C288.572 218.01 288.507 218.041 288.458 218.094C288.41 218.147 288.382 218.219 288.381 218.294C288.381 218.37 288.408 218.442 288.457 218.496C288.505 218.549 288.571 218.579 288.64 218.579H291.649L288.977 221.515C288.93 221.569 288.903 221.642 288.903 221.718C288.903 221.793 288.93 221.866 288.977 221.92C289.027 221.971 289.093 222 289.162 222C289.23 222 289.296 221.971 289.346 221.92L292.012 218.984V222.285C292.012 222.36 292.04 222.433 292.088 222.486C292.137 222.54 292.203 222.57 292.272 222.57C292.341 222.57 292.407 222.54 292.455 222.486C292.504 222.433 292.531 222.36 292.531 222.285V218.984L295.203 221.92C295.253 221.971 295.319 222 295.387 222C295.456 222 295.521 221.971 295.571 221.92C295.619 221.866 295.646 221.793 295.646 221.718C295.646 221.642 295.619 221.569 295.571 221.515L292.9 218.579H295.903C295.972 218.579 296.038 218.549 296.087 218.496C296.135 218.442 296.163 218.37 296.163 218.294C296.159 218.221 296.13 218.153 296.081 218.103C296.033 218.054 295.97 218.026 295.903 218.026Z" fill="#3F51B5"/>
<path d="M306.798 218.026H303.794L306.466 215.096C306.514 215.041 306.54 214.969 306.54 214.893C306.54 214.818 306.514 214.745 306.466 214.691C306.442 214.664 306.413 214.643 306.381 214.628C306.35 214.614 306.316 214.606 306.282 214.606C306.247 214.606 306.214 214.614 306.182 214.628C306.15 214.643 306.122 214.664 306.097 214.691L303.426 217.627V214.32C303.426 214.245 303.398 214.172 303.35 214.119C303.301 214.065 303.235 214.035 303.166 214.035C303.098 214.037 303.033 214.067 302.984 214.12C302.936 214.173 302.908 214.245 302.907 214.32V217.627L300.24 214.674C300.216 214.647 300.188 214.626 300.156 214.611C300.124 214.597 300.09 214.589 300.056 214.589C300.022 214.589 299.988 214.597 299.956 214.611C299.925 214.626 299.896 214.647 299.872 214.674C299.824 214.728 299.797 214.801 299.797 214.876C299.797 214.952 299.824 215.024 299.872 215.078L302.544 218.009H299.535C299.466 218.01 299.401 218.041 299.353 218.094C299.304 218.147 299.277 218.219 299.275 218.294C299.275 218.37 299.303 218.442 299.351 218.496C299.4 218.549 299.466 218.579 299.535 218.579H302.544L299.872 221.515C299.824 221.569 299.797 221.642 299.797 221.718C299.797 221.793 299.824 221.866 299.872 221.92C299.922 221.971 299.988 222 300.056 222C300.125 222 300.19 221.971 300.24 221.92L302.907 218.984V222.285C302.907 222.36 302.934 222.433 302.983 222.486C303.032 222.54 303.098 222.57 303.166 222.57C303.235 222.57 303.301 222.54 303.35 222.486C303.398 222.433 303.426 222.36 303.426 222.285V218.984L306.097 221.92C306.147 221.971 306.213 222 306.282 222C306.35 222 306.416 221.971 306.466 221.92C306.514 221.866 306.54 221.793 306.54 221.718C306.54 221.642 306.514 221.569 306.466 221.515L303.794 218.579H306.798C306.867 218.579 306.933 218.549 306.981 218.496C307.03 218.442 307.057 218.37 307.057 218.294C307.053 218.221 307.024 218.153 306.976 218.103C306.928 218.054 306.864 218.026 306.798 218.026Z" fill="#3F51B5"/>
<path d="M317.692 218.026H314.689L317.36 215.096C317.408 215.041 317.435 214.969 317.435 214.893C317.435 214.818 317.408 214.745 317.36 214.691C317.336 214.664 317.308 214.643 317.276 214.628C317.244 214.614 317.21 214.606 317.176 214.606C317.142 214.606 317.108 214.614 317.076 214.628C317.045 214.643 317.016 214.664 316.992 214.691L314.32 217.627V214.32C314.32 214.245 314.293 214.172 314.244 214.119C314.196 214.065 314.13 214.035 314.061 214.035C313.992 214.037 313.927 214.067 313.879 214.12C313.831 214.173 313.803 214.245 313.801 214.32V217.627L311.135 214.674C311.111 214.647 311.082 214.626 311.05 214.611C311.019 214.597 310.985 214.589 310.951 214.589C310.916 214.589 310.883 214.597 310.851 214.611C310.819 214.626 310.791 214.647 310.767 214.674C310.719 214.728 310.692 214.801 310.692 214.876C310.692 214.952 310.719 215.024 310.767 215.078L313.438 218.009H310.429C310.361 218.01 310.296 218.041 310.247 218.094C310.199 218.147 310.171 218.219 310.17 218.294C310.17 218.37 310.197 218.442 310.246 218.496C310.295 218.549 310.361 218.579 310.429 218.579H313.438L310.767 221.515C310.719 221.569 310.692 221.642 310.692 221.718C310.692 221.793 310.719 221.866 310.767 221.92C310.816 221.971 310.882 222 310.951 222C311.019 222 311.085 221.971 311.135 221.92L313.801 218.984V222.285C313.801 222.36 313.829 222.433 313.877 222.486C313.926 222.54 313.992 222.57 314.061 222.57C314.13 222.57 314.196 222.54 314.244 222.486C314.293 222.433 314.32 222.36 314.32 222.285V218.984L316.992 221.92C317.042 221.971 317.108 222 317.176 222C317.245 222 317.31 221.971 317.36 221.92C317.408 221.866 317.435 221.793 317.435 221.718C317.435 221.642 317.408 221.569 317.36 221.515L314.689 218.579H317.692C317.761 218.579 317.827 218.549 317.876 218.496C317.924 218.442 317.952 218.37 317.952 218.294C317.948 218.221 317.919 218.153 317.871 218.103C317.822 218.054 317.759 218.026 317.692 218.026Z" fill="#3F51B5"/>
<path d="M328.588 218.026H325.584L328.256 215.096C328.304 215.041 328.33 214.969 328.33 214.893C328.33 214.818 328.304 214.745 328.256 214.691C328.232 214.664 328.203 214.643 328.171 214.628C328.14 214.614 328.106 214.606 328.072 214.606C328.037 214.606 328.004 214.614 327.972 214.628C327.94 214.643 327.912 214.664 327.888 214.691L325.216 217.627V214.32C325.216 214.245 325.188 214.172 325.14 214.119C325.091 214.065 325.025 214.035 324.956 214.035C324.888 214.037 324.823 214.067 324.774 214.12C324.726 214.173 324.698 214.245 324.697 214.32V217.627L322.03 214.674C322.006 214.647 321.978 214.626 321.946 214.611C321.914 214.597 321.88 214.589 321.846 214.589C321.812 214.589 321.778 214.597 321.746 214.611C321.715 214.626 321.686 214.647 321.662 214.674C321.614 214.728 321.587 214.801 321.587 214.876C321.587 214.952 321.614 215.024 321.662 215.078L324.334 218.009H321.325C321.256 218.01 321.191 218.041 321.143 218.094C321.094 218.147 321.067 218.219 321.065 218.294C321.065 218.37 321.093 218.442 321.141 218.496C321.19 218.549 321.256 218.579 321.325 218.579H324.334L321.662 221.515C321.614 221.569 321.587 221.642 321.587 221.718C321.587 221.793 321.614 221.866 321.662 221.92C321.712 221.971 321.778 222 321.846 222C321.915 222 321.98 221.971 322.03 221.92L324.697 218.984V222.285C324.697 222.36 324.724 222.433 324.773 222.486C324.822 222.54 324.888 222.57 324.956 222.57C325.025 222.57 325.091 222.54 325.14 222.486C325.188 222.433 325.216 222.36 325.216 222.285V218.984L327.888 221.92C327.938 221.971 328.003 222 328.072 222C328.14 222 328.206 221.971 328.256 221.92C328.304 221.866 328.33 221.793 328.33 221.718C328.33 221.642 328.304 221.569 328.256 221.515L325.584 218.579H328.588C328.657 218.579 328.723 218.549 328.771 218.496C328.82 218.442 328.847 218.37 328.847 218.294C328.843 218.221 328.814 218.153 328.766 218.103C328.718 218.054 328.654 218.026 328.588 218.026Z" fill="#3F51B5"/>
<path d="M339.482 218.026H336.479L339.15 215.096C339.198 215.041 339.225 214.969 339.225 214.893C339.225 214.818 339.198 214.745 339.15 214.691C339.126 214.664 339.098 214.643 339.066 214.628C339.034 214.614 339 214.606 338.966 214.606C338.932 214.606 338.898 214.614 338.866 214.628C338.835 214.643 338.806 214.664 338.782 214.691L336.11 217.627V214.32C336.11 214.245 336.083 214.172 336.034 214.119C335.986 214.065 335.92 214.035 335.851 214.035C335.783 214.037 335.717 214.067 335.669 214.12C335.621 214.173 335.593 214.245 335.592 214.32V217.627L332.925 214.674C332.901 214.647 332.872 214.626 332.84 214.611C332.809 214.597 332.775 214.589 332.741 214.589C332.706 214.589 332.673 214.597 332.641 214.611C332.609 214.626 332.581 214.647 332.557 214.674C332.509 214.728 332.482 214.801 332.482 214.876C332.482 214.952 332.509 215.024 332.557 215.078L335.228 218.009H332.219C332.151 218.01 332.086 218.041 332.037 218.094C331.989 218.147 331.961 218.219 331.96 218.294C331.96 218.37 331.987 218.442 332.036 218.496C332.085 218.549 332.151 218.579 332.219 218.579H335.228L332.557 221.515C332.509 221.569 332.482 221.642 332.482 221.718C332.482 221.793 332.509 221.866 332.557 221.92C332.607 221.971 332.672 222 332.741 222C332.809 222 332.875 221.971 332.925 221.92L335.592 218.984V222.285C335.592 222.36 335.619 222.433 335.667 222.486C335.716 222.54 335.782 222.57 335.851 222.57C335.92 222.57 335.986 222.54 336.034 222.486C336.083 222.433 336.11 222.36 336.11 222.285V218.984L338.782 221.92C338.832 221.971 338.898 222 338.966 222C339.035 222 339.1 221.971 339.15 221.92C339.198 221.866 339.225 221.793 339.225 221.718C339.225 221.642 339.198 221.569 339.15 221.515L336.479 218.579H339.482C339.551 218.579 339.617 218.549 339.666 218.496C339.715 218.442 339.742 218.37 339.742 218.294C339.738 218.221 339.709 218.153 339.661 218.103C339.612 218.054 339.549 218.026 339.482 218.026Z" fill="#3F51B5"/>
<path d="M350.377 218.026H347.373L350.045 215.096C350.093 215.041 350.12 214.969 350.12 214.893C350.12 214.818 350.093 214.745 350.045 214.691C350.021 214.664 349.992 214.643 349.961 214.628C349.929 214.614 349.895 214.606 349.861 214.606C349.827 214.606 349.793 214.614 349.761 214.628C349.729 214.643 349.701 214.664 349.677 214.691L347.005 217.627V214.32C347.005 214.245 346.977 214.172 346.929 214.119C346.88 214.065 346.814 214.035 346.745 214.035C346.677 214.037 346.612 214.067 346.563 214.12C346.515 214.173 346.487 214.245 346.486 214.32V217.627L343.819 214.674C343.795 214.647 343.767 214.626 343.735 214.611C343.703 214.597 343.669 214.589 343.635 214.589C343.601 214.589 343.567 214.597 343.536 214.611C343.504 214.626 343.475 214.647 343.451 214.674C343.403 214.728 343.376 214.801 343.376 214.876C343.376 214.952 343.403 215.024 343.451 215.078L346.123 218.009H343.114C343.046 218.01 342.98 218.041 342.932 218.094C342.884 218.147 342.856 218.219 342.854 218.294C342.854 218.37 342.882 218.442 342.93 218.496C342.979 218.549 343.045 218.579 343.114 218.579H346.123L343.451 221.515C343.403 221.569 343.376 221.642 343.376 221.718C343.376 221.793 343.403 221.866 343.451 221.92C343.501 221.971 343.567 222 343.635 222C343.704 222 343.769 221.971 343.819 221.92L346.486 218.984V222.285C346.486 222.36 346.513 222.433 346.562 222.486C346.611 222.54 346.677 222.57 346.745 222.57C346.814 222.57 346.88 222.54 346.929 222.486C346.977 222.433 347.005 222.36 347.005 222.285V218.984L349.677 221.92C349.727 221.971 349.792 222 349.861 222C349.929 222 349.995 221.971 350.045 221.92C350.093 221.866 350.12 221.793 350.12 221.718C350.12 221.642 350.093 221.569 350.045 221.515L347.373 218.579H350.377C350.446 218.579 350.512 218.549 350.56 218.496C350.609 218.442 350.636 218.37 350.636 218.294C350.632 218.221 350.603 218.153 350.555 218.103C350.507 218.054 350.443 218.026 350.377 218.026Z" fill="#3F51B5"/>
<path d="M361.272 218.026H358.268L360.939 215.096C360.987 215.041 361.014 214.969 361.014 214.893C361.014 214.818 360.987 214.745 360.939 214.691C360.915 214.664 360.887 214.643 360.855 214.628C360.823 214.614 360.79 214.606 360.755 214.606C360.721 214.606 360.687 214.614 360.656 214.628C360.624 214.643 360.595 214.664 360.571 214.691L357.899 217.627V214.32C357.899 214.245 357.872 214.172 357.823 214.119C357.775 214.065 357.709 214.035 357.64 214.035C357.572 214.037 357.506 214.067 357.458 214.12C357.41 214.173 357.382 214.245 357.381 214.32V217.627L354.714 214.674C354.69 214.647 354.661 214.626 354.63 214.611C354.598 214.597 354.564 214.589 354.53 214.589C354.496 214.589 354.462 214.597 354.43 214.611C354.398 214.626 354.37 214.647 354.346 214.674C354.298 214.728 354.271 214.801 354.271 214.876C354.271 214.952 354.298 215.024 354.346 215.078L357.017 218.009H354.008C353.94 218.01 353.875 218.041 353.826 218.094C353.778 218.147 353.75 218.219 353.749 218.294C353.749 218.37 353.776 218.442 353.825 218.496C353.874 218.549 353.94 218.579 354.008 218.579H357.017L354.346 221.515C354.298 221.569 354.271 221.642 354.271 221.718C354.271 221.793 354.298 221.866 354.346 221.92C354.396 221.971 354.461 222 354.53 222C354.598 222 354.664 221.971 354.714 221.92L357.381 218.984V222.285C357.381 222.36 357.408 222.433 357.457 222.486C357.505 222.54 357.571 222.57 357.64 222.57C357.709 222.57 357.775 222.54 357.823 222.486C357.872 222.433 357.899 222.36 357.899 222.285V218.984L360.571 221.92C360.621 221.971 360.687 222 360.755 222C360.824 222 360.89 221.971 360.939 221.92C360.987 221.866 361.014 221.793 361.014 221.718C361.014 221.642 360.987 221.569 360.939 221.515L358.268 218.579H361.272C361.34 218.579 361.406 218.549 361.455 218.496C361.504 218.442 361.531 218.37 361.531 218.294C361.527 218.221 361.498 218.153 361.45 218.103C361.401 218.054 361.338 218.026 361.272 218.026Z" fill="#3F51B5"/>
<path d="M372.166 218.026H369.162L371.834 215.096C371.882 215.041 371.909 214.969 371.909 214.893C371.909 214.818 371.882 214.745 371.834 214.691C371.81 214.664 371.781 214.643 371.75 214.628C371.718 214.614 371.684 214.606 371.65 214.606C371.616 214.606 371.582 214.614 371.55 214.628C371.518 214.643 371.49 214.664 371.466 214.691L368.794 217.627V214.32C368.794 214.245 368.767 214.172 368.718 214.119C368.669 214.065 368.603 214.035 368.535 214.035C368.466 214.037 368.401 214.067 368.353 214.12C368.304 214.173 368.276 214.245 368.275 214.32V217.627L365.609 214.674C365.584 214.647 365.556 214.626 365.524 214.611C365.492 214.597 365.459 214.589 365.424 214.589C365.39 214.589 365.356 214.597 365.325 214.611C365.293 214.626 365.264 214.647 365.24 214.674C365.192 214.728 365.166 214.801 365.166 214.876C365.166 214.952 365.192 215.024 365.24 215.078L367.912 218.009H364.903C364.835 218.01 364.769 218.041 364.721 218.094C364.673 218.147 364.645 218.219 364.644 218.294C364.644 218.37 364.671 218.442 364.72 218.496C364.768 218.549 364.834 218.579 364.903 218.579H367.912L365.24 221.515C365.192 221.569 365.166 221.642 365.166 221.718C365.166 221.793 365.192 221.866 365.24 221.92C365.29 221.971 365.356 222 365.424 222C365.493 222 365.559 221.971 365.609 221.92L368.275 218.984V222.285C368.275 222.36 368.302 222.433 368.351 222.486C368.4 222.54 368.466 222.57 368.535 222.57C368.603 222.57 368.669 222.54 368.718 222.486C368.767 222.433 368.794 222.36 368.794 222.285V218.984L371.466 221.92C371.516 221.971 371.581 222 371.65 222C371.718 222 371.784 221.971 371.834 221.92C371.882 221.866 371.909 221.793 371.909 221.718C371.909 221.642 371.882 221.569 371.834 221.515L369.162 218.579H372.166C372.235 218.579 372.301 218.549 372.349 218.496C372.398 218.442 372.425 218.37 372.425 218.294C372.421 218.221 372.392 218.153 372.344 218.103C372.296 218.054 372.232 218.026 372.166 218.026Z" fill="#3F51B5"/>
<path d="M383.061 218.026H380.057L382.729 215.096C382.776 215.041 382.803 214.969 382.803 214.893C382.803 214.818 382.776 214.745 382.729 214.691C382.704 214.664 382.676 214.643 382.644 214.628C382.613 214.614 382.579 214.606 382.544 214.606C382.51 214.606 382.476 214.614 382.445 214.628C382.413 214.643 382.384 214.664 382.36 214.691L379.688 217.627V214.32C379.688 214.245 379.661 214.172 379.612 214.119C379.564 214.065 379.498 214.035 379.429 214.035C379.361 214.037 379.295 214.067 379.247 214.12C379.199 214.173 379.171 214.245 379.17 214.32V217.627L376.503 214.674C376.479 214.647 376.45 214.626 376.419 214.611C376.387 214.597 376.353 214.589 376.319 214.589C376.285 214.589 376.251 214.597 376.219 214.611C376.187 214.626 376.159 214.647 376.135 214.674C376.087 214.728 376.06 214.801 376.06 214.876C376.06 214.952 376.087 215.024 376.135 215.078L378.806 218.009H375.797C375.729 218.01 375.664 218.041 375.616 218.094C375.567 218.147 375.539 218.219 375.538 218.294C375.538 218.37 375.565 218.442 375.614 218.496C375.663 218.549 375.729 218.579 375.797 218.579H378.806L376.135 221.515C376.087 221.569 376.06 221.642 376.06 221.718C376.06 221.793 376.087 221.866 376.135 221.92C376.185 221.971 376.25 222 376.319 222C376.387 222 376.453 221.971 376.503 221.92L379.17 218.984V222.285C379.17 222.36 379.197 222.433 379.246 222.486C379.294 222.54 379.36 222.57 379.429 222.57C379.498 222.57 379.564 222.54 379.612 222.486C379.661 222.433 379.688 222.36 379.688 222.285V218.984L382.36 221.92C382.41 221.971 382.476 222 382.544 222C382.613 222 382.679 221.971 382.729 221.92C382.776 221.866 382.803 221.793 382.803 221.718C382.803 221.642 382.776 221.569 382.729 221.515L380.057 218.579H383.061C383.129 218.579 383.195 218.549 383.244 218.496C383.293 218.442 383.32 218.37 383.32 218.294C383.316 218.221 383.287 218.153 383.239 218.103C383.19 218.054 383.127 218.026 383.061 218.026Z" fill="#3F51B5"/>
<path d="M393.955 218.026H390.951L393.623 215.096C393.671 215.041 393.698 214.969 393.698 214.893C393.698 214.818 393.671 214.745 393.623 214.691C393.599 214.664 393.57 214.643 393.539 214.628C393.507 214.614 393.473 214.606 393.439 214.606C393.405 214.606 393.371 214.614 393.339 214.628C393.307 214.643 393.279 214.664 393.255 214.691L390.583 217.627V214.32C390.583 214.245 390.556 214.172 390.507 214.119C390.458 214.065 390.392 214.035 390.324 214.035C390.255 214.037 390.19 214.067 390.142 214.12C390.093 214.173 390.065 214.245 390.064 214.32V217.627L387.398 214.674C387.373 214.647 387.345 214.626 387.313 214.611C387.282 214.597 387.248 214.589 387.213 214.589C387.179 214.589 387.145 214.597 387.114 214.611C387.082 214.626 387.053 214.647 387.029 214.674C386.981 214.728 386.955 214.801 386.955 214.876C386.955 214.952 386.981 215.024 387.029 215.078L389.701 218.009H386.692C386.624 218.01 386.558 218.041 386.51 218.094C386.462 218.147 386.434 218.219 386.433 218.294C386.433 218.37 386.46 218.442 386.509 218.496C386.557 218.549 386.623 218.579 386.692 218.579H389.701L387.029 221.515C386.981 221.569 386.955 221.642 386.955 221.718C386.955 221.793 386.981 221.866 387.029 221.92C387.079 221.971 387.145 222 387.213 222C387.282 222 387.348 221.971 387.398 221.92L390.064 218.984V222.285C390.064 222.36 390.091 222.433 390.14 222.486C390.189 222.54 390.255 222.57 390.324 222.57C390.392 222.57 390.458 222.54 390.507 222.486C390.556 222.433 390.583 222.36 390.583 222.285V218.984L393.255 221.92C393.305 221.971 393.37 222 393.439 222C393.507 222 393.573 221.971 393.623 221.92C393.671 221.866 393.698 221.793 393.698 221.718C393.698 221.642 393.671 221.569 393.623 221.515L390.951 218.579H393.955C394.024 218.579 394.09 218.549 394.138 218.496C394.187 218.442 394.214 218.37 394.214 218.294C394.21 218.221 394.181 218.153 394.133 218.103C394.085 218.054 394.021 218.026 393.955 218.026Z" fill="#3F51B5"/>
<path d="M477.476 287.381C477.461 286.692 477.383 286.006 477.242 285.335C476.775 283.407 475.722 281.076 473.989 280.494C472.2 279.892 470.472 279.09 468.832 278.1C468.521 271.988 469.797 265.734 468.407 259.81C467.888 257.644 467.032 255.568 466.804 253.351C466.519 250.591 467.203 247.649 466.202 245.107C465.414 243.1 463.681 241.686 461.818 240.945C459.956 240.204 457.948 240.004 455.972 239.805C453.481 239.582 445.419 238.533 442.607 240.979C442.414 241.144 442.239 241.336 442.089 241.549C442.027 241.643 441.971 241.742 441.923 241.846L441.897 241.891C441.84 242.01 441.793 242.134 441.757 242.262C441.717 242.402 441.688 242.545 441.668 242.689C441.668 242.735 441.668 242.781 441.668 242.826C441.668 242.872 441.668 243.026 441.668 243.128V243.282C441.668 243.385 441.668 243.488 441.668 243.596C441.668 243.704 441.668 243.676 441.668 243.716C441.705 244.229 441.772 244.742 441.772 245.249C441.778 245.502 441.757 245.754 441.71 246.002C441.537 246.674 441.244 247.302 440.849 247.849L440.755 247.997C440.698 248.088 440.641 248.174 440.589 248.265C440.537 248.356 440.496 248.425 440.454 248.505C440.413 248.584 440.371 248.636 440.335 248.71C440.285 248.804 440.24 248.901 440.2 249.001C440.2 249.058 440.143 249.109 440.122 249.166C440.058 249.32 440.005 249.48 439.967 249.645C439.845 250.14 439.835 250.66 439.936 251.161C440.076 251.801 440.316 252.409 440.646 252.957C440.776 253.191 440.916 253.419 441.061 253.647L441.425 254.189C441.357 254.718 441.32 255.251 441.316 255.785C441.316 257.57 441.685 259.332 442.395 260.938C443.105 262.544 444.137 263.952 445.414 265.055C445.62 267.463 445.597 269.888 445.347 272.29C445.3 272.792 445.243 273.299 445.181 273.801C445.118 274.303 445.072 274.633 445.009 275.05C444.25 275.169 443.477 275.105 442.742 274.861C442.404 274.695 442.057 274.549 441.705 274.422C440.195 274.006 438.654 275.66 437.16 275.158C437.16 275.238 437.119 275.312 437.093 275.386C436.781 275.173 436.422 275.057 436.055 275.05C435.168 275.004 434.447 274.297 433.804 273.63L431.827 271.583C431.698 271.458 431.583 271.316 431.485 271.161C431.378 270.94 431.298 270.704 431.246 270.46C430.914 269.28 430.11 268.339 429.332 267.444C429.184 267.24 428.989 267.084 428.766 266.994C428.68 266.979 428.593 266.979 428.507 266.994C428.454 266.914 428.397 266.838 428.335 266.766C428.201 266.596 428.057 266.436 427.905 266.287C426.961 265.329 426.867 264.508 426.048 263.436C425.333 262.414 424.684 261.337 424.107 260.215C424.04 259.616 423.947 259.001 423.832 258.379C423.571 256.956 423.19 255.563 422.696 254.217L421.659 251.692L421.539 251.823C420.787 250.591 419.983 249.918 419.262 250.078C418.053 250.352 417.456 252.929 417.648 256.298L418.063 259.719C418.063 259.804 418.1 259.89 418.12 259.975C418.046 260.381 418.008 260.793 418.006 261.207C418.006 261.686 418.411 262.039 418.624 262.467C418.964 263.046 419.144 263.721 419.143 264.411C419.117 264.656 419.049 264.89 419.039 265.129C419.067 265.665 419.236 266.18 419.526 266.612L422.12 271.401L422.639 272.404L422.67 272.45C422.834 272.8 423.073 273.101 423.365 273.328C423.467 274.527 423.757 275.698 424.221 276.788C424.31 277.005 424.408 277.21 424.512 277.415C425.209 278.675 426.031 279.847 426.961 280.91L428.195 282.433C429.415 283.926 430.634 285.426 431.957 286.805C432.43 287.359 433.002 287.8 433.638 288.1C433.949 288.236 434.287 288.28 434.619 288.227C434.95 288.174 435.263 288.026 435.526 287.797C435.526 288.504 435.526 289.211 435.526 289.918C435.719 289.931 435.905 290.001 436.065 290.119C436.225 290.237 436.353 290.401 436.437 290.592C436.52 290.783 436.556 290.995 436.54 291.206C436.524 291.418 436.457 291.621 436.346 291.794C435.256 294.867 434.156 297.968 432.507 300.722C433.671 301.48 434.751 302.385 435.723 303.419C436.354 304.187 436.915 305.022 437.399 305.91C437.446 306.332 437.482 306.748 437.503 307.164C437.886 313.96 435.495 320.705 433.352 327.182C432.735 329.017 432.06 330.939 432.112 332.849C431.706 333.124 431.317 333.431 430.95 333.766C431.376 334.986 431.21 336.075 431.163 337.381C431.147 338.164 431.002 338.937 430.732 339.661C430.507 340.164 430.257 340.653 429.985 341.127C428.642 343.732 428.346 346.828 428.076 349.804C427.915 351.6 428.548 353.795 427.806 355.403C426.525 358.162 425.389 361.104 425.212 364.171C425.206 364.861 425.126 365.548 424.974 366.218C424.813 366.788 424.528 367.273 424.382 367.831C424.233 368.58 424.198 369.351 424.279 370.112C424.377 372.845 424.008 375.573 423.189 378.156C422.541 380.191 421.825 382.369 422.333 384.462C421.081 385.907 420.309 387.772 420.139 389.758C420.125 390.266 420.07 390.772 419.973 391.269C419.814 391.777 419.605 392.265 419.35 392.723C418.306 394.813 417.817 397.184 417.939 399.564C416.383 401.885 415.604 404.747 415.143 407.592C414.681 410.436 414.479 413.333 413.887 416.143C413.099 419.861 411.672 423.618 411.392 427.426C409.711 428.606 408.985 430.892 408.663 433.053C408.341 435.214 408.289 437.483 407.464 439.479C407.039 440.516 406.427 441.445 406.022 442.506C405.738 443.35 405.53 444.223 405.4 445.111C405.151 446.502 404.933 448.053 405.239 449.387C404.799 449.899 404.285 450.329 403.719 450.659C403.802 450.305 403.869 449.952 403.926 449.592C402.588 450.927 400.16 450.459 399.091 452.061C398.77 452.578 398.645 453.211 398.742 453.827C398.839 454.443 399.15 454.994 399.61 455.362C399.944 455.586 400.306 455.757 400.684 455.87C403.278 456.782 405.944 457.7 408.611 457.215C408.926 457.178 409.232 457.071 409.509 456.901C409.855 456.621 410.141 456.259 410.344 455.841C410.743 455.145 411.143 454.45 411.537 453.754C412.492 454.068 413.464 454.317 414.447 454.501C414.546 455.413 414.619 456.326 414.655 457.238C415.174 457.352 415.869 457.386 416.113 456.856C416.187 456.655 416.217 456.439 416.201 456.223C416.201 455.818 416.253 455.282 416.284 454.735H416.388C417.971 454.805 419.545 454.455 420.979 453.715C420.424 448.663 422.255 443.726 423.843 438.948C425.518 433.92 426.956 428.8 428.403 423.68C429.441 420.077 430.587 416.588 431.604 412.979C432.884 408.418 434.168 403.857 435.459 399.296C436.019 397.289 436.584 395.305 437.228 393.31C438.582 389.272 440.189 385.342 442.037 381.548C442.556 380.471 443.074 379.405 443.5 378.287C444.019 376.925 444.387 375.499 444.802 374.091C445.706 371.202 446.795 368.386 448.06 365.665C448.096 365.591 448.122 365.522 448.159 365.454C448.579 367.341 448.999 369.257 449.279 371.155C449.658 373.483 449.688 375.863 449.367 378.202C449.118 379.792 448.646 381.366 448.703 382.979C448.781 385.209 449.865 387.232 450.4 389.382C450.744 390.99 450.939 392.633 450.981 394.285C451.126 396.85 452.392 399.73 451.5 402.107C448.724 409.638 450.068 418.145 448.485 426.052C447.671 430.111 445.176 433.926 445.373 438.076C445.511 441.022 445.746 443.96 446.078 446.89C446.158 447.815 446.377 448.718 446.727 449.564C446.934 450.009 447.171 450.436 447.437 450.841C447.209 450.938 447.017 451.195 446.851 451.736C446.426 453.161 446.851 454.929 448.003 455.727C448.472 456.003 448.978 456.195 449.502 456.297C450.208 456.517 450.937 456.629 451.671 456.628C451.899 456.614 452.126 456.584 452.35 456.537C453.152 456.907 453.971 457.23 454.804 457.506C454.804 457.74 454.846 457.973 454.872 458.207C454.873 458.329 454.898 458.45 454.944 458.561C454.991 458.672 455.058 458.771 455.141 458.851C455.271 458.918 455.414 458.945 455.557 458.931H458.374C458.374 458.675 458.374 458.412 458.374 458.156C458.696 458.193 459.022 458.155 459.33 458.045C459.638 457.935 459.922 457.755 460.163 457.517C460.413 457.168 460.59 456.763 460.682 456.331C461.45 453.469 462.213 450.605 462.97 447.74C463.878 444.572 464.256 441.249 464.085 437.933C463.084 427.426 465.284 416.885 464.568 406.349C464.137 400.016 464.433 393.649 465.45 387.398C465.683 385.984 465.969 384.547 466.072 383.139C466.301 380.482 466.021 377.797 466.192 375.157C466.249 374.234 466.363 373.316 466.467 372.398C467.178 366.701 467.55 360.959 467.582 355.209C467.566 353.303 467.459 351.4 467.261 349.507C467.801 349.356 468.292 349.04 468.677 348.595C469.139 347.934 469.019 347.005 469.014 346.161C469.014 344.143 469.787 342.238 470.41 340.334C471.209 337.708 471.863 335.031 472.371 332.318C472.907 330.132 473.199 327.883 473.242 325.619C473.242 325.391 473.232 325.163 473.211 324.935C473.407 324.786 473.57 324.592 473.688 324.365C473.824 324.031 473.908 323.675 473.937 323.31C474.124 321.857 474.316 320.397 474.503 318.938C474.641 317.892 474.778 316.849 474.913 315.808L476.562 303.157C476.703 302.056 476.848 300.962 476.988 299.867L477.418 296.594C477.465 296.207 477.517 295.819 477.553 295.454C478.819 293.128 477.61 290.027 477.476 287.381ZM463.712 334.747C463.1 333.151 462.529 331.514 462.674 329.793H462.617C462.754 329.263 462.73 328.699 462.55 328.185C462.389 327.769 462.109 327.415 461.938 326.999C461.754 326.491 461.659 325.949 461.658 325.403C461.529 321.935 461.778 318.463 462.399 315.061C462.467 314.662 462.539 314.257 462.607 313.858C462.825 313.72 463.024 313.549 463.198 313.35C463.471 313.008 463.697 312.624 463.868 312.21C464.454 310.916 464.988 309.599 465.481 308.259C465.642 307.826 465.875 307.324 466.275 307.216C466.192 310.551 466.503 313.955 465.268 316.965C465.034 317.45 464.859 317.968 464.75 318.504C464.635 319.354 464.957 320.215 464.843 321.058C464.786 321.497 464.615 321.902 464.547 322.335C464.496 322.548 464.497 322.772 464.55 322.984C464.603 323.197 464.705 323.39 464.848 323.544C464.917 323.597 464.992 323.639 465.071 323.67C465.04 323.898 465.014 324.131 464.993 324.354C464.952 324.821 464.931 325.26 464.905 325.534C464.786 326.928 464.739 328.329 464.765 329.73C464.765 331.241 464.817 332.752 464.796 334.291C464.815 334.733 464.748 335.174 464.599 335.585C464.496 335.797 464.363 335.99 464.205 336.155C464.054 335.642 463.888 335.192 463.712 334.747Z" fill="url(#paint0_linear)"/>
<path d="M422.76 268.596C424.343 268.239 424.882 263.957 423.963 259.031C423.045 254.105 421.017 250.4 419.434 250.757C417.851 251.113 417.312 255.396 418.231 260.322C419.149 265.248 421.177 268.952 422.76 268.596Z" fill="#FBBEBE"/>
<path d="M446.934 451.846C446.509 453.26 446.934 455.027 448.086 455.797C448.552 456.07 449.055 456.262 449.575 456.367C450.278 456.585 451.007 456.695 451.738 456.692C452.635 456.646 453.497 456.258 454.394 456.122C454.498 456.093 454.607 456.109 454.7 456.167C454.745 456.22 454.779 456.283 454.799 456.352C454.818 456.422 454.824 456.495 454.814 456.566C454.824 457.127 454.862 457.686 454.929 458.242C454.929 458.365 454.954 458.485 455 458.596C455.047 458.708 455.114 458.806 455.198 458.887C455.328 458.953 455.471 458.981 455.613 458.966H458.425C458.489 456.252 458.218 453.54 457.621 450.905C457.582 450.703 457.512 450.51 457.414 450.335C457.175 450.048 456.862 449.849 456.516 449.765C455.829 449.45 455.086 449.308 454.342 449.348C453.434 449.48 452.677 450.124 451.904 450.66C451.131 451.196 450.078 451.669 449.139 451.395C448.2 451.122 447.416 450.261 446.934 451.846Z" fill="#3F3D56"/>
<path d="M405.649 449.342C404.858 450.272 403.889 450.997 402.811 451.463L402.334 451.713C402.268 451.741 402.211 451.791 402.173 451.856C402.164 451.9 402.164 451.946 402.173 451.991C402.182 452.035 402.199 452.077 402.225 452.113C402.622 452.788 403.209 453.302 403.896 453.576C404.584 453.851 405.334 453.872 406.033 453.635C406.342 453.55 406.628 453.386 406.868 453.156C407.263 452.64 407.49 451.994 407.511 451.32C407.668 450.625 407.641 449.895 407.433 449.216C406.712 447.432 406.448 448.241 405.649 449.342Z" fill="#FBBEBE"/>
<path d="M416.429 456.367C416.445 456.583 416.415 456.799 416.341 457C416.097 457.524 415.418 457.496 414.888 457.382C414.808 455.447 414.595 453.523 414.25 451.624C413.244 451.572 412.518 452.621 411.978 453.562L410.588 455.985C410.387 456.402 410.103 456.765 409.758 457.045C409.48 457.213 409.175 457.319 408.86 457.359C406.204 457.844 403.522 456.926 400.959 456.014C400.581 455.902 400.22 455.733 399.885 455.512C399.428 455.143 399.118 454.593 399.021 453.979C398.925 453.365 399.048 452.733 399.366 452.217C400.44 450.62 402.852 451.076 404.191 449.754C404.051 450.684 403.822 451.596 403.506 452.473C405.296 452.177 406.5 450.375 407.942 449.172C408.304 448.834 408.74 448.606 409.208 448.511C409.557 448.478 409.909 448.519 410.245 448.63C411.908 449.091 413.464 449.932 414.811 451.099C415.355 451.572 416.206 452.239 416.445 452.969C416.699 453.841 416.429 455.438 416.429 456.367Z" fill="#3F3D56"/>
<path d="M452.117 268.261C458.036 268.261 462.835 262.987 462.835 256.482C462.835 249.977 458.036 244.703 452.117 244.703C446.197 244.703 441.398 249.977 441.398 256.482C441.398 262.987 446.197 268.261 452.117 268.261Z" fill="#FBBEBE"/>
<path d="M473.232 326.025C473.189 328.276 472.898 330.514 472.366 332.689C471.858 335.391 471.203 338.056 470.405 340.671C469.787 342.57 469.014 344.474 469.019 346.486C469.019 347.324 469.144 348.254 468.677 348.915C468.261 349.379 467.737 349.709 467.162 349.867C466.875 349.951 466.61 350.107 466.389 350.324C466.167 350.541 465.995 350.812 465.886 351.116C465.399 350.316 465.034 349.434 464.807 348.505C463.876 345.373 463.012 342.224 462.213 339.058C462.14 338.875 462.108 338.676 462.121 338.478C462.134 338.279 462.19 338.087 462.286 337.917C462.417 337.792 462.571 337.697 462.737 337.638C463.269 337.4 463.756 337.056 464.174 336.623C464.37 336.432 464.532 336.202 464.651 335.945C464.802 335.536 464.871 335.097 464.854 334.656C464.854 333.145 464.854 331.64 464.817 330.129C464.795 328.735 464.844 327.339 464.963 325.95C464.963 325.677 465.009 325.238 465.051 324.77C465.129 323.875 465.284 322.838 465.725 322.49C466.384 322.005 468.355 322.655 469.102 322.769C470.389 322.963 471.696 323.191 472.952 323.459C473.134 324.3 473.228 325.16 473.232 326.025Z" fill="#3F3D56"/>
<path d="M429.954 269.669C429.539 270.581 428.543 271.02 427.775 271.596L425.145 273.58C424.969 273.754 424.763 273.887 424.54 273.971C424.316 274.056 424.079 274.089 423.843 274.07C423.629 273.983 423.433 273.85 423.266 273.679C423.1 273.508 422.966 273.302 422.873 273.073C422.874 273.057 422.874 273.042 422.873 273.027L422.328 272.024L419.734 267.246C419.446 266.818 419.278 266.307 419.252 265.775C419.252 265.53 419.33 265.302 419.35 265.057C419.357 264.368 419.177 263.693 418.831 263.118C418.624 262.691 418.209 262.337 418.219 261.858C418.199 261.229 418.298 260.602 418.51 260.017C418.782 259.475 419.172 259.017 419.646 258.683C419.89 258.489 420.139 258.306 420.398 258.113C420.536 258.009 420.689 257.932 420.85 257.884C421.28 257.788 421.706 258.181 422.141 258.198C424.014 259.578 424.735 262.189 426.209 264.07C427.039 265.142 427.122 265.963 428.061 266.921C428.211 267.069 428.357 267.229 428.497 267.394C428.682 267.617 428.839 267.866 428.964 268.135C429.135 268.626 430.167 269.201 429.954 269.669Z" fill="#3F3D56"/>
<path d="M448.351 268.266C449.124 270.062 449.726 272.034 449.503 274.007C449.457 274.541 449.303 275.058 449.052 275.518C448.304 276.778 446.738 277.006 445.373 277.08C445.086 277.053 444.796 277.09 444.522 277.188C444.248 277.286 443.994 277.443 443.775 277.65C443.593 277.941 443.504 278.291 443.522 278.643C443.54 278.996 443.663 279.333 443.874 279.6C444.312 280.114 444.857 280.505 445.462 280.74C447.62 281.783 449.949 282.644 452.294 282.405C453.383 282.291 454.442 281.943 455.526 281.766C456.708 281.626 457.896 281.553 459.085 281.55C460.496 281.493 461.902 281.339 463.308 281.185L467.033 280.78C467.236 280.783 467.434 280.704 467.588 280.558C467.863 280.204 467.51 279.685 467.168 279.417C465.191 277.81 462.675 276.704 461.549 274.286C461.03 273.146 460.87 271.789 460.486 270.558C460.102 269.326 459.49 268.215 459.251 266.96C459.124 265.86 459.067 264.751 459.08 263.642C459.093 262.524 458.722 261.441 458.042 260.609C457.3 259.851 456.226 259.657 455.22 259.611C452.74 259.492 450.099 260.142 448.341 262.063C447.869 262.582 447.464 263.203 446.976 263.671C446.489 264.138 445.825 264.275 446.146 264.891C446.468 265.506 447.101 265.888 447.443 266.43C447.79 267.014 448.093 267.628 448.351 268.266Z" fill="#FBBEBE"/>
<path d="M469.481 284.851C468.827 289.241 467.763 293.546 466.306 297.696C465.574 299.57 464.95 301.493 464.439 303.454C464.039 305.222 464.117 307.114 463.749 308.887C463.292 311.094 462.836 313.306 462.467 315.529C461.849 318.925 461.602 322.389 461.73 325.849C461.732 326.394 461.827 326.933 462.011 327.439C462.182 327.85 462.457 328.203 462.618 328.625C462.738 328.996 462.787 329.39 462.762 329.782C462.737 330.175 462.638 330.557 462.472 330.906C462.206 331.558 461.845 332.159 461.404 332.684C456.568 334.269 451.396 333.751 446.359 334.087C441.715 334.395 437.02 335.444 432.445 334.572C431.926 332.291 432.792 329.902 433.534 327.679C435.687 321.219 438.068 314.492 437.684 307.724C437.644 306.935 437.563 306.149 437.441 305.37C436.688 300.575 437.508 295.609 438.821 290.963C439.635 288.067 439.599 284.982 439.412 281.966C439.32 280.987 439.307 280 439.376 279.019C439.451 278.016 439.79 277.06 440.351 276.265C440.351 276.225 440.398 276.185 440.424 276.145C440.45 276.105 440.652 276.111 440.813 276.145C440.854 276.165 440.898 276.174 440.942 276.174C440.987 276.174 441.031 276.165 441.072 276.145L441.129 276.105C441.151 276.088 441.178 276.079 441.204 276.079C441.231 276.079 441.258 276.088 441.28 276.105C441.399 276.185 441.466 276.459 441.726 276.51C442.109 276.574 442.495 276.614 442.883 276.63C443.349 276.645 443.812 276.718 444.263 276.847H444.325C445 276.972 445.692 276.907 446.338 276.658C446.768 276.54 447.182 276.364 447.573 276.134C447.687 275.997 448.403 275.872 448.548 275.775C449.02 275.461 448.916 273.99 449.015 273.386C449.069 272.78 449.2 272.185 449.404 271.619C449.64 271.201 449.966 270.853 450.353 270.605C450.74 270.358 451.177 270.218 451.624 270.199C452.518 270.176 453.411 270.264 454.286 270.461C456.221 270.763 458.203 270.712 460.101 271.202C461.056 271.448 462.099 271.818 462.976 271.339C463.214 271.402 463.251 271.63 463.251 271.909C463.228 272.175 463.179 272.437 463.105 272.69C462.773 274.264 463.899 275.712 464.937 276.852C465.375 277.39 465.892 277.843 466.467 278.192C466.986 278.454 467.505 278.563 468.023 278.848C468.444 279.094 468.8 279.453 469.061 279.891C469.36 280.393 469.561 280.958 469.652 281.55C469.764 282.653 469.706 283.769 469.481 284.851Z" fill="#3F3D56"/>
<path opacity="0.1" d="M469.481 284.85C468.827 289.24 467.763 293.545 466.306 297.695C465.574 299.569 464.95 301.493 464.438 303.453C464.039 305.221 464.117 307.114 463.748 308.887C463.292 311.093 462.835 313.305 462.467 315.529C462.358 315.597 462.244 315.66 462.13 315.717C461.484 316.056 460.8 316.297 460.096 316.435C458.831 316.603 457.55 316.557 456.298 316.298L448.895 315.209C445.938 314.77 442.789 314.24 440.595 312.04C439.375 310.831 438.576 309.234 437.7 307.695C437.659 306.906 437.578 306.12 437.456 305.341C436.704 300.546 437.523 295.58 438.836 290.934C439.65 288.037 439.614 284.953 439.427 281.937C439.335 280.958 439.323 279.971 439.391 278.989C439.466 277.987 439.805 277.03 440.366 276.236C440.518 276.187 440.672 276.149 440.828 276.122C440.932 276.099 441.038 276.083 441.145 276.076H441.295C441.47 276.077 441.644 276.1 441.814 276.145C442.167 276.268 442.514 276.415 442.851 276.584H442.914C443.358 276.745 443.826 276.818 444.294 276.8C444.978 276.8 445.684 276.68 446.369 276.629C447.215 276.484 448.08 276.655 448.828 277.114C449.31 277.54 449.768 277.999 450.197 278.488C450.717 278.936 451.301 279.285 451.925 279.52C456.391 281.393 461.345 281.278 465.735 279.2C466.157 278.937 466.635 278.803 467.12 278.813C467.479 278.89 467.818 279.049 468.117 279.28C468.428 279.48 468.734 279.674 469.05 279.85C469.349 280.353 469.551 280.918 469.642 281.509C469.761 282.625 469.706 283.755 469.481 284.85Z" fill="black"/>
<path d="M474 281.076C471.934 280.383 469.949 279.426 468.086 278.226C467.786 277.996 467.447 277.837 467.09 277.758C466.603 277.752 466.124 277.886 465.699 278.146C461.311 280.224 456.358 280.338 451.894 278.465C451.271 278.228 450.687 277.879 450.167 277.433C449.735 276.946 449.278 276.487 448.797 276.059C447.09 274.845 444.73 276.27 442.82 275.489C442.482 275.323 442.136 275.177 441.783 275.05C440.273 274.634 438.738 276.287 437.254 275.786C436.702 277.435 436.294 279.137 436.035 280.871C435.824 282.862 435.711 284.864 435.697 286.869C435.697 288.072 435.646 289.275 435.697 290.478C435.88 290.511 436.055 290.585 436.21 290.696C436.366 290.807 436.498 290.952 436.6 291.122C436.668 291.321 436.696 291.533 436.682 291.745C436.667 291.957 436.611 292.162 436.517 292.348C435.433 295.409 434.333 298.505 432.688 301.247C433.848 302.006 434.923 302.909 435.895 303.938C437.71 306.048 438.603 309.007 440.564 310.957C442.774 313.152 445.923 313.688 448.864 314.121L456.268 315.21C457.521 315.468 458.803 315.516 460.07 315.352C460.773 315.211 461.455 314.968 462.099 314.628C462.519 314.435 462.903 314.156 463.23 313.807C463.503 313.466 463.729 313.082 463.899 312.667C464.485 311.379 465.02 310.062 465.512 308.727C465.684 308.254 465.943 307.701 466.41 307.661C469.16 304.936 471.754 302.143 474.503 299.417C475.608 298.411 476.599 297.263 477.455 295.997C478.819 293.779 477.58 290.637 477.455 287.958C477.44 287.273 477.362 286.591 477.222 285.923C476.775 283.978 475.727 281.652 474 281.076Z" fill="#3F51B5"/>
<path opacity="0.1" d="M429.955 269.668C429.54 270.58 428.543 271.019 427.776 271.595L425.145 273.579C424.97 273.753 424.764 273.886 424.54 273.971C424.316 274.055 424.079 274.089 423.843 274.07C423.629 273.983 423.433 273.85 423.266 273.678C423.1 273.507 422.966 273.301 422.873 273.072C422.873 272.941 422.873 272.798 422.873 272.661C422.853 272.2 422.909 271.738 423.039 271.299C423.297 270.654 423.696 270.09 424.201 269.657C425.178 268.64 426.34 267.863 427.61 267.376C427.808 267.292 428.023 267.268 428.232 267.308C428.313 267.331 428.39 267.368 428.46 267.416C428.646 267.639 428.803 267.888 428.927 268.157C429.135 268.625 430.167 269.201 429.955 269.668Z" fill="black"/>
<path d="M436.148 275.678C435.267 275.632 434.545 274.931 433.902 274.264L431.936 272.257C431.804 272.135 431.689 271.993 431.593 271.835C431.487 271.613 431.407 271.378 431.355 271.134C430.938 269.982 430.285 268.952 429.446 268.124C429.299 267.919 429.103 267.765 428.88 267.679C428.669 267.636 428.452 267.66 428.252 267.747C426.982 268.233 425.82 269.011 424.844 270.028C424.339 270.461 423.94 271.025 423.682 271.67C423.551 272.109 423.495 272.571 423.516 273.032C423.528 274.539 423.836 276.024 424.419 277.388C424.507 277.599 424.605 277.81 424.709 278.015C425.401 279.272 426.219 280.441 427.147 281.499L428.382 283.015C429.596 284.509 430.81 286.003 432.128 287.377C432.6 287.93 433.173 288.369 433.809 288.665C434.128 288.808 434.477 288.852 434.817 288.792C435.158 288.731 435.477 288.569 435.739 288.323C435.987 288.007 436.174 287.638 436.289 287.24C437.087 284.959 437.845 282.588 437.892 280.13C437.903 279.146 437.865 278.162 437.777 277.183C437.7 276.145 437.03 275.74 436.148 275.678Z" fill="#3F51B5"/>
<path d="M467.588 355.495C467.557 361.23 467.187 366.956 466.477 372.638C466.374 373.556 466.259 374.474 466.202 375.392C466.031 378.054 466.311 380.728 466.083 383.374C465.964 384.805 465.694 386.224 465.466 387.621C464.452 393.855 464.156 400.205 464.584 406.521C465.3 417.028 463.105 427.541 464.101 438.02C464.222 440.058 464.119 442.104 463.795 444.115C463.61 445.362 463.341 446.593 462.991 447.798C462.234 450.652 461.473 453.503 460.708 456.349C460.618 456.782 460.441 457.188 460.19 457.535C459.925 457.787 459.615 457.973 459.279 458.082C458.944 458.192 458.591 458.221 458.244 458.168C455.251 458.065 452.434 456.646 449.715 455.26C449.403 455.125 449.113 454.932 448.859 454.69C448.294 454.046 448.34 453.031 448.091 452.182C447.842 451.332 447.168 450.534 446.784 449.662C446.468 448.837 446.277 447.96 446.219 447.068C445.873 444.149 445.637 441.218 445.513 438.276C445.316 434.137 447.806 430.329 448.626 426.304C450.182 418.391 448.864 409.907 451.63 402.399C452.501 400.027 451.235 397.154 451.111 394.599C451.066 392.952 450.871 391.313 450.53 389.708C450.011 387.564 448.916 385.546 448.838 383.322C448.781 381.715 449.253 380.147 449.497 378.562C449.821 376.229 449.791 373.854 449.409 371.532C449.134 369.617 448.714 367.701 448.294 365.831L448.2 366.042C446.936 368.757 445.849 371.567 444.947 374.451C444.532 375.848 444.169 377.273 443.651 378.63C443.225 379.77 442.701 380.814 442.188 381.886C440.345 385.665 438.742 389.58 437.389 393.602C436.745 395.574 436.18 397.592 435.62 399.571L431.775 413.254C430.738 416.851 429.602 420.329 428.585 423.921C427.148 429.052 425.711 434.137 424.04 439.154C422.484 443.915 420.632 448.847 421.187 453.875C419.756 454.614 418.185 454.964 416.606 454.896C413.932 454.636 411.309 453.936 408.824 452.82C407.833 452.416 406.806 451.959 406.137 451.064C404.985 449.519 405.27 447.256 405.618 445.289C405.749 444.402 405.957 443.532 406.24 442.689C406.635 441.64 407.278 440.711 407.683 439.673C408.497 437.684 408.549 435.432 408.871 433.271C409.192 431.11 409.908 428.83 411.589 427.655C411.874 423.858 413.296 420.112 414.079 416.401C414.671 413.59 414.868 410.7 415.335 407.849C415.802 404.998 416.554 402.148 418.121 399.839C417.997 397.458 418.486 395.087 419.532 392.997C419.784 392.538 419.991 392.051 420.149 391.543C420.246 391.048 420.302 390.545 420.315 390.038C420.487 388.057 421.258 386.196 422.505 384.753C421.986 382.672 422.707 380.5 423.355 378.482C424.172 375.907 424.542 373.186 424.445 370.46C424.364 369.699 424.398 368.929 424.543 368.18C424.689 367.61 424.974 367.125 425.14 366.578C425.288 365.907 425.366 365.221 425.373 364.531C425.576 361.447 426.712 358.539 427.967 355.785C428.714 354.178 428.082 351.994 428.237 350.204C428.507 347.228 428.803 344.149 430.146 341.555C430.395 341.065 430.665 340.597 430.888 340.09C431.159 339.365 431.305 338.592 431.319 337.809C431.366 336.504 431.532 335.421 431.106 334.206C433.882 331.669 437.669 330.957 441.28 330.785C444.89 330.614 448.543 330.974 452.076 330.13C453.113 329.873 454.151 329.52 455.245 329.349C457.731 328.95 460.252 329.571 462.706 330.187C462.535 331.897 463.105 333.539 463.743 335.13C466.235 341.573 467.541 348.494 467.588 355.495Z" fill="#33313F"/>
<path opacity="0.1" d="M455.37 356.799L449.409 371.531C449.134 369.615 448.714 367.7 448.294 365.83L448.2 366.041V365.733L451.448 357.882L455.37 356.799Z" fill="black"/>
<path opacity="0.1" d="M473.232 326.025C472.888 326.307 472.478 326.476 472.049 326.509C471.392 326.535 470.736 326.437 470.109 326.218L465.44 324.936C465.294 324.896 465.151 324.841 465.015 324.77C465.092 323.875 465.248 322.838 465.689 322.49C466.348 322.005 468.319 322.655 469.066 322.769C470.353 322.963 471.66 323.191 472.916 323.459C473.11 324.298 473.217 325.159 473.232 326.025Z" fill="black"/>
<path d="M477.18 292.103C477.279 292.576 477.419 293.044 477.502 293.523C477.641 294.698 477.604 295.89 477.393 297.052L476.967 300.313L476.542 303.591L474.897 316.208L474.493 319.332L473.922 323.694C473.895 324.057 473.811 324.412 473.673 324.743C473.503 325.053 473.266 325.311 472.982 325.495C472.699 325.679 472.378 325.783 472.049 325.797C471.392 325.82 470.736 325.722 470.109 325.507L465.44 324.218C465.235 324.178 465.041 324.091 464.869 323.962C464.726 323.808 464.623 323.616 464.571 323.405C464.518 323.194 464.517 322.971 464.568 322.759C464.636 322.325 464.807 321.921 464.864 321.487C464.978 320.644 464.656 319.777 464.771 318.939C464.882 318.405 465.057 317.89 465.289 317.405C466.846 313.625 465.943 309.213 466.472 305.108C466.948 301.877 468.19 298.841 470.073 296.305C471.234 294.704 472.569 293.265 474.046 292.018C474.628 291.522 475.551 290.501 476.282 290.307C477.221 290.091 477.024 291.385 477.18 292.103Z" fill="#3F51B5"/>
<path d="M441.845 242.992C441.503 244.189 442.037 245.506 441.793 246.726C441.529 248.072 440.377 249.007 440.05 250.358C439.531 252.416 441.119 254.292 442.281 256.002C446.587 262.353 446.021 271.144 444.548 278.892C443.363 285.109 441.723 291.21 439.646 297.136C438.997 298.978 438.281 300.848 437.005 302.228C439.391 301.475 441.928 300.717 444.32 301.446C447.35 302.37 449.964 305.603 453.036 304.867C454.882 304.417 456.179 302.615 457.84 301.617C460.952 299.776 464.703 300.933 468.174 301.526C468.922 301.72 469.704 301.677 470.431 301.401C470.986 301.073 471.457 300.596 471.8 300.015C473.349 297.832 474.277 295.194 474.467 292.433C474.549 291.058 474.364 289.68 473.925 288.389C473.486 287.099 472.802 285.925 471.92 284.947C471.183 284.183 470.301 283.567 469.735 282.667C469.185 281.615 468.891 280.425 468.879 279.212C468.47 272.94 469.86 266.538 468.428 260.472C467.909 258.311 467.064 256.241 466.835 254.029C466.55 251.276 467.23 248.328 466.234 245.808C465.45 243.807 463.723 242.387 461.86 241.658C459.998 240.928 458.006 240.723 456.029 240.517C453.186 240.255 443.033 238.915 441.845 242.992Z" fill="#33313F"/>
<g opacity="0.1">
<path opacity="0.1" d="M444.548 278.891C443.369 285.082 441.738 291.158 439.672 297.061C440.03 296.28 440.331 295.459 440.616 294.644C442.696 288.718 444.336 282.617 445.519 276.4C446.997 268.646 447.563 259.866 443.257 253.51C442.219 251.993 440.886 250.351 440.933 248.572C440.549 249.11 440.251 249.715 440.051 250.362C439.532 252.421 441.119 254.296 442.281 256.007C446.587 262.352 446.022 271.143 444.548 278.891Z" fill="black"/>
<path opacity="0.1" d="M441.856 246.15C442.272 245.581 442.583 244.928 442.769 244.228C442.849 243.381 442.828 242.527 442.707 241.686C442.307 242.016 442.007 242.471 441.846 242.991C441.54 244 441.892 245.095 441.856 246.15Z" fill="black"/>
<path opacity="0.1" d="M472.776 297.507C472.432 298.086 471.961 298.561 471.406 298.887C470.681 299.168 469.897 299.212 469.149 299.012C465.679 298.442 461.886 297.268 458.815 299.109C457.15 300.101 455.858 301.903 454.006 302.359C450.94 303.111 448.325 299.879 445.295 298.938C443.147 298.282 440.885 298.824 438.722 299.508C438.292 300.516 437.712 301.437 437.005 302.233C439.391 301.481 441.928 300.722 444.32 301.452C447.35 302.376 449.964 305.608 453.036 304.873C454.882 304.423 456.179 302.621 457.84 301.623C460.952 299.782 464.703 300.939 468.174 301.532C468.922 301.726 469.704 301.682 470.431 301.407C470.986 301.079 471.457 300.602 471.8 300.021C472.741 298.658 473.466 297.132 473.948 295.506C473.601 296.203 473.21 296.872 472.776 297.507Z" fill="black"/>
</g>
</g>
<defs>
<linearGradient id="paint0_linear" x1="398.744" y1="349.154" x2="478.119" y2="349.154" gradientUnits="userSpaceOnUse">
<stop stop-color="#808080" stop-opacity="0.25"/>
<stop offset="0.54" stop-color="#808080" stop-opacity="0.12"/>
<stop offset="1" stop-color="#808080" stop-opacity="0.1"/>
</linearGradient>
<clipPath id="clip0">
<rect width="605" height="459" fill="white"/>
</clipPath>
</defs>
</svg>
