<svg width="565" height="393" viewBox="0 0 565 393" fill="none" xmlns="http://www.w3.org/2000/svg">
<g clip-path="url(#clip0)">
<path d="M0 392.738H90.8818" stroke="#3F3D56" stroke-miterlimit="10"/>
<path d="M525.911 67.6895H143.658C137.793 67.6895 133.038 72.2908 133.038 77.9668V321.795C133.038 327.471 137.793 332.073 143.658 332.073H525.911C531.777 332.073 536.531 327.471 536.531 321.795V77.9668C536.531 72.2908 531.777 67.6895 525.911 67.6895Z" fill="#F2F2F2"/>
<path d="M513.592 51H131.339C125.473 51 120.719 55.6013 120.719 61.2774V305.106C120.719 310.782 125.473 315.383 131.339 315.383H513.592C519.457 315.383 524.212 310.782 524.212 305.106V61.2774C524.212 55.6013 519.457 51 513.592 51Z" stroke="#3F3D56" stroke-miterlimit="10"/>
<path d="M120.719 76.3418H524.212" stroke="#3F3D56" stroke-miterlimit="10"/>
<path opacity="0.3" d="M468.045 135.771H365.768C363.623 135.771 361.885 137.454 361.885 139.529V148.438C361.885 150.514 363.623 152.196 365.768 152.196H468.045C470.19 152.196 471.928 150.514 471.928 148.438V139.529C471.928 137.454 470.19 135.771 468.045 135.771Z" fill="#493DC1"/>
<path opacity="0.3" d="M489.123 181.336H344.69C342.545 181.336 340.807 183.018 340.807 185.094V190.824C340.807 192.899 342.545 194.582 344.69 194.582H489.123C491.268 194.582 493.006 192.899 493.006 190.824V185.094C493.006 183.018 491.268 181.336 489.123 181.336Z" fill="#493DC1"/>
<path opacity="0.3" d="M489.123 217.365H344.69C342.545 217.365 340.807 219.048 340.807 221.123V226.853C340.807 228.928 342.545 230.611 344.69 230.611H489.123C491.268 230.611 493.006 228.928 493.006 226.853V221.123C493.006 219.048 491.268 217.365 489.123 217.365Z" fill="#493DC1"/>
<path opacity="0.3" d="M489.123 253.395H344.69C342.545 253.395 340.807 255.077 340.807 257.152V262.882C340.807 264.958 342.545 266.64 344.69 266.64H489.123C491.268 266.64 493.006 264.958 493.006 262.882V257.152C493.006 255.077 491.268 253.395 489.123 253.395Z" fill="#493DC1"/>
<path d="M473.52 130.473H371.242C369.098 130.473 367.359 132.155 367.359 134.23V143.139C367.359 145.215 369.098 146.897 371.242 146.897H473.52C475.665 146.897 477.403 145.215 477.403 143.139V134.23C477.403 132.155 475.665 130.473 473.52 130.473Z" stroke="#3F3D56" stroke-miterlimit="10"/>
<path d="M494.599 176.039H350.165C348.021 176.039 346.282 177.721 346.282 179.797V185.527C346.282 187.602 348.021 189.285 350.165 189.285H494.599C496.743 189.285 498.482 187.602 498.482 185.527V179.797C498.482 177.721 496.743 176.039 494.599 176.039Z" stroke="#3F3D56" stroke-miterlimit="10"/>
<path d="M494.599 212.066H350.165C348.021 212.066 346.282 213.749 346.282 215.824V221.554C346.282 223.63 348.021 225.312 350.165 225.312H494.599C496.743 225.312 498.482 223.63 498.482 221.554V215.824C498.482 213.749 496.743 212.066 494.599 212.066Z" stroke="#3F3D56" stroke-miterlimit="10"/>
<path d="M494.599 248.096H350.165C348.021 248.096 346.282 249.778 346.282 251.853V257.583C346.282 259.659 348.021 261.341 350.165 261.341H494.599C496.743 261.341 498.482 259.659 498.482 257.583V251.853C498.482 249.778 496.743 248.096 494.599 248.096Z" stroke="#3F3D56" stroke-miterlimit="10"/>
<path opacity="0.3" d="M151.379 74.842C155.915 74.842 159.591 71.2839 159.591 66.8947C159.591 62.5054 155.915 58.9473 151.379 58.9473C146.844 58.9473 143.167 62.5054 143.167 66.8947C143.167 71.2839 146.844 74.842 151.379 74.842Z" fill="#493DC1"/>
<path opacity="0.3" d="M174.372 74.842C178.908 74.842 182.585 71.2839 182.585 66.8947C182.585 62.5054 178.908 58.9473 174.372 58.9473C169.837 58.9473 166.16 62.5054 166.16 66.8947C166.16 71.2839 169.837 74.842 174.372 74.842Z" fill="#493DC1"/>
<path opacity="0.3" d="M197.367 74.842C201.903 74.842 205.58 71.2839 205.58 66.8947C205.58 62.5054 201.903 58.9473 197.367 58.9473C192.832 58.9473 189.155 62.5054 189.155 66.8947C189.155 71.2839 192.832 74.842 197.367 74.842Z" fill="#493DC1"/>
<path d="M154.662 71.6643C159.198 71.6643 162.875 68.1062 162.875 63.7169C162.875 59.3277 159.198 55.7695 154.662 55.7695C150.127 55.7695 146.45 59.3277 146.45 63.7169C146.45 68.1062 150.127 71.6643 154.662 71.6643Z" stroke="#3F3D56" stroke-miterlimit="10"/>
<path d="M177.658 71.6643C182.193 71.6643 185.87 68.1062 185.87 63.7169C185.87 59.3277 182.193 55.7695 177.658 55.7695C173.122 55.7695 169.445 59.3277 169.445 63.7169C169.445 68.1062 173.122 71.6643 177.658 71.6643Z" stroke="#3F3D56" stroke-miterlimit="10"/>
<path d="M200.652 71.6643C205.187 71.6643 208.864 68.1062 208.864 63.7169C208.864 59.3277 205.187 55.7695 200.652 55.7695C196.116 55.7695 192.439 59.3277 192.439 63.7169C192.439 68.1062 196.116 71.6643 200.652 71.6643Z" stroke="#3F3D56" stroke-miterlimit="10"/>
<path d="M248.204 304.254C246.829 298.125 246.464 289.753 246.927 283.93C246.927 283.93 239.974 254.373 234.504 251.615L234.503 251.617C234.419 251.721 231.764 255.089 231.427 265.511C231.085 276.099 227.212 283.047 227.212 283.047C227.212 283.047 228.465 296.243 227.749 304.254L248.204 304.254Z" fill="#493DC1"/>
<path d="M298.776 116.168H172.605C170.896 116.168 169.204 116.494 167.625 117.127C166.046 117.76 164.611 118.687 163.403 119.857C162.194 121.026 161.236 122.415 160.581 123.943C159.927 125.471 159.591 127.109 159.591 128.763V291.661C159.591 293.315 159.927 294.953 160.581 296.481C161.236 298.009 162.194 299.398 163.403 300.567C164.611 301.737 166.046 302.665 167.625 303.298C169.204 303.931 170.896 304.256 172.605 304.256H216.872C215.394 298.323 213.556 289.055 215.417 282.612L215.416 282.607L215.417 282.61C215.504 282.309 215.597 282.013 215.7 281.725C216.978 277.543 217.405 273.161 216.955 268.822C217.777 265.114 217.777 261.28 216.955 257.573C215.587 251.397 214.63 245.331 214.63 245.331C214.63 245.331 213.876 237.17 214.534 232.168C214.549 232.058 214.566 231.954 214.582 231.847C214.349 231.796 214.219 231.766 214.219 231.766C214.219 231.766 216.156 223.274 216.84 217.87C217.002 216.594 217.214 214.977 217.444 213.253C216.813 213.151 216.192 212.999 215.587 212.797C209.433 210.702 207.495 191.732 207.495 191.732V185.722C207.495 185.722 205.444 176.513 212.624 172.432C219.537 168.503 222.297 167.428 222.493 167.353C222.545 167.317 222.597 167.284 222.65 167.244C223.432 166.65 224.05 165.88 224.451 165C224.461 164.849 224.463 164.698 224.458 164.549C224.341 162.394 222.792 160.435 221.321 158.725C220.067 157.267 218.812 155.808 217.558 154.35C217.128 153.916 216.798 153.398 216.589 152.832C216.509 152.52 216.475 152.198 216.486 151.876C216.485 151.757 216.486 151.639 216.488 151.52C216.509 150.432 216.539 149.345 216.58 148.259C216.615 147.309 216.862 146.111 217.823 145.916C218.323 145.814 218.984 145.991 219.249 145.568C219.337 145.394 219.36 145.195 219.313 145.006C219.309 145.02 219.309 145.035 219.304 145.049C219.301 145.031 219.298 145.014 219.295 144.996C219.097 144.235 218.978 143.456 218.938 142.672C218.928 142.318 218.98 141.965 219.093 141.628C219.65 140.052 221.566 139.405 223.26 139.108C224.954 138.81 226.855 138.555 227.918 137.244C228.203 136.809 228.511 136.39 228.843 135.987C229.33 135.558 229.93 135.265 230.576 135.141C232.678 134.626 234.899 134.817 236.875 135.682C237.695 136.044 238.518 136.531 239.416 136.476C240.35 136.418 241.147 135.783 242.069 135.628C243.558 135.378 244.981 136.457 245.714 137.736C246.18 138.549 246.413 139.468 246.389 140.397C246.407 141.322 246.062 142.22 245.424 142.909C244.783 143.567 243.827 144.019 243.561 144.885C243.453 145.238 243.478 145.618 243.382 145.974C243.37 146.018 243.351 146.06 243.335 146.103C243.352 146.125 243.372 146.146 243.389 146.168C244.51 147.597 245.261 149.265 245.58 151.032C245.899 152.799 245.776 154.615 245.223 156.327C244.669 158.039 243.7 159.598 242.397 160.874C241.094 162.15 239.495 163.106 237.732 163.662C237.728 163.774 237.723 163.886 237.724 163.998C237.691 164.693 237.813 165.387 238.081 166.033C238.349 166.679 238.758 167.261 239.279 167.741L249.433 171.771C249.433 171.771 255.546 171.054 257.752 179.882C258.105 181.35 258.233 182.86 258.13 184.363C258.049 185.694 258.236 188.038 259.803 191.071C262.31 195.923 261.741 207.062 256.612 208.165C251.755 209.21 249.865 208.771 249.679 208.721L249.668 208.916C249.748 211.007 250.517 229.033 253.308 231.215C254.079 231.818 253.932 232.225 253.299 232.5L253.3 232.502C253.3 232.502 253.305 232.618 253.317 232.826C253.401 234.144 253.832 239.165 255.7 242.022C257.866 245.331 257.639 264.411 257.639 264.411L259.119 275.66C259.119 275.66 258.208 282.608 259.119 283.821C259.637 284.509 260.264 295.161 260.709 304.256H298.776C302.228 304.256 305.538 302.929 307.979 300.567C310.419 298.205 311.79 295.002 311.79 291.661V128.763C311.79 127.109 311.454 125.471 310.8 123.943C310.146 122.415 309.187 121.026 307.979 119.857C306.77 118.687 305.335 117.76 303.756 117.127C302.177 116.494 300.485 116.168 298.776 116.168Z" fill="#493DC1"/>
<path d="M285.635 101.863H159.465C152.277 101.863 146.45 107.502 146.45 114.458V277.357C146.45 284.313 152.277 289.951 159.465 289.951H285.635C292.823 289.951 298.65 284.313 298.65 277.357V114.458C298.65 107.502 292.823 101.863 285.635 101.863Z" stroke="#3F3D56" stroke-miterlimit="10"/>
<path d="M55.1984 170.408C55.1984 170.408 50.0936 168.947 48.9986 170.536C47.9037 172.126 50.4914 183.648 50.4914 183.648L61.7399 184.31L57.8144 174.717L55.1984 170.408Z" fill="#2F2E41"/>
<path d="M15.8458 265.029C15.8458 265.029 26.0807 286.774 18.1986 286.091C10.3165 285.408 7.25781 265.029 7.25781 265.029H15.8458Z" fill="#A0616A"/>
<path d="M82.7862 262.764C82.7862 262.764 78.2962 286.261 85.7728 283.751C93.2495 281.241 91.1186 260.752 91.1186 260.752L82.7862 262.764Z" fill="#A0616A"/>
<path d="M53.0212 164.959C53.0212 164.959 52.9036 175.889 57.2564 176.458C61.6092 177.027 54.7859 182.834 54.7859 182.834L47.0214 184.314L35.8453 183.517L30.9043 177.369C30.9043 177.369 39.6099 173.384 35.8453 160.975L53.0212 164.959Z" fill="#A0616A"/>
<path opacity="0.1" d="M53.0212 164.959C53.0212 164.959 52.9036 175.889 57.2564 176.458C61.6092 177.027 54.7859 182.834 54.7859 182.834L47.0214 184.314L35.8453 183.517L30.9043 177.369C30.9043 177.369 39.6099 173.384 35.8453 160.975L53.0212 164.959Z" fill="black"/>
<path d="M73.0214 257.405C73.0214 257.405 78.5507 268.904 74.1979 304.994C74.1979 304.994 75.492 317.745 74.4332 320.136C73.3744 322.527 64.6688 354.974 64.6688 354.974C64.6688 354.974 53.4926 357.365 51.9633 350.193C51.9633 350.193 53.4926 339.946 53.375 338.352C53.2574 336.758 55.8455 319.339 55.8455 319.339L50.5516 285.64L46.5517 316.038C46.5517 316.038 46.5517 324.804 45.2576 326.74C43.9635 328.675 45.2576 367.612 45.2576 367.612C45.2576 367.612 48.9045 373.532 43.3753 373.646C37.846 373.759 32.905 373.532 32.4344 369.775C31.9638 366.018 31.7286 362.261 30.5521 359.984C29.3757 357.707 27.8463 331.635 28.1993 322.527C28.5522 313.419 20.4348 266.627 23.023 261.731C25.6111 256.836 73.0214 257.405 73.0214 257.405Z" fill="#2F2E41"/>
<path d="M47.0215 169.056C54.8182 169.056 61.1387 162.94 61.1387 155.394C61.1387 147.849 54.8182 141.732 47.0215 141.732C39.2248 141.732 32.9043 147.849 32.9043 155.394C32.9043 162.94 39.2248 169.056 47.0215 169.056Z" fill="#A0616A"/>
<path d="M32.9042 177.593C32.9042 177.593 41.4922 183.74 53.9624 178.845C53.9624 178.845 58.0799 176.909 57.727 173.949C57.374 170.989 66.3149 197.744 66.3149 197.744L75.3735 244.308L74.9029 263.321C74.9029 263.321 70.903 261.386 58.4328 265.712C45.9627 270.038 25.6104 260.817 25.6104 260.817L26.3162 211.975L27.0221 183.513L28.9044 177.251C28.9044 177.251 29.8455 175.543 32.9042 177.593Z" fill="#F2F2F2"/>
<path d="M53.4131 169.949C53.4131 169.949 55.4913 169.623 57.4912 172.697C59.4912 175.771 64.1969 177.706 64.1969 177.706C64.1969 177.706 75.6083 178.389 77.2553 184.309C78.9023 190.23 83.0198 198.313 85.0198 213.227C87.0197 228.142 91.0196 251.936 91.6078 253.872C92.196 255.807 90.7843 261.727 92.4313 263.549C94.0783 265.371 80.7846 265.371 80.7846 265.371C80.7846 265.371 79.6082 256.035 78.7847 256.035C77.9611 256.035 78.1964 262.297 79.0199 266.851C79.8434 271.405 73.0201 266.851 73.0201 266.851C73.0201 266.851 67.7262 246.016 62.6675 227.231C57.6088 208.446 54.6678 198.085 55.6089 193.873C56.55 189.66 59.1382 177.592 57.2559 176.454C55.3736 175.315 53.4131 169.949 53.4131 169.949Z" fill="#2F2E41"/>
<path d="M36.4491 169.939C36.4491 169.939 33.3756 171.558 25.6111 176.909C17.8466 182.26 12.5527 186.359 12.5527 186.359C12.5527 186.359 9.49393 188.636 7.61165 202.184C5.72936 215.732 1.49418 250.798 3.1412 255.238C4.78821 259.678 5.37642 262.296 4.78821 264.915C4.19999 267.534 17.1408 267.42 17.376 266.85C17.6113 266.281 17.0231 255.921 17.6113 255.693C18.1995 255.465 21.3759 261.841 21.9641 267.192C22.5523 272.543 29.3757 276.755 30.905 276.755C32.4344 276.755 40.3165 245.902 40.4342 224.84C40.5518 203.778 37.846 186.017 35.8461 183.512C33.8461 181.008 36.4491 169.939 36.4491 169.939Z" fill="#2F2E41"/>
<path d="M57.1399 355.997C57.1399 355.997 58.081 353.492 61.3751 354.289C64.6691 355.086 66.9043 352.24 66.9043 352.24C66.9043 352.24 68.6689 352.012 67.4925 354.176C66.3161 356.339 65.3749 357.819 65.3749 357.819C65.3749 357.819 72.4335 373.416 67.8454 377.173C63.2573 380.93 57.9634 378.653 57.9634 378.653C57.9634 378.653 52.7871 375.124 53.0224 365.788C53.0224 365.788 52.7871 362.828 49.9637 358.046C47.1402 353.265 45.0227 345.978 48.4343 344.612C51.846 343.246 52.7241 343.195 52.7241 343.195C52.7241 343.195 51.1276 350.262 55.2514 352.731L57.1399 355.997Z" fill="#3F3D56"/>
<path d="M35.2575 373.639C35.2575 373.639 32.434 368.516 37.1398 367.947C41.8455 367.378 46.9042 367.036 46.6689 369.427C46.4336 371.818 45.8454 375.461 45.8454 375.461L46.6689 378.079C46.6689 378.079 46.9042 384.569 47.7277 385.366C48.5512 386.163 53.0217 392.994 43.4925 392.994C33.9634 392.994 31.14 391.969 31.9635 389.806C32.787 387.643 33.0223 376.941 33.0223 376.941L35.2575 373.639Z" fill="#3F3D56"/>
<path d="M42.5514 144.464C42.5514 144.464 49.1395 146.172 52.5511 146.855C55.9628 147.538 55.6099 145.602 55.6099 145.602C55.6099 145.602 60.0803 146.172 59.845 145.716C59.6097 145.261 61.7273 142.87 59.2568 140.138C56.7863 137.405 57.4921 135.356 57.4921 135.356H55.3746L54.7863 134.559H51.4923C51.4923 134.559 49.0218 133.648 42.5514 134.559C36.081 135.47 27.2578 135.698 26.5519 139.455C25.8461 143.212 22.1991 147.879 23.4932 150.043C24.7873 152.206 32.1988 161.086 32.9047 164.843C33.6105 168.6 36.9064 169.435 36.7878 167.082C36.6693 164.729 33.3752 156.532 36.1987 156.19C39.0221 155.849 43.8455 148.904 42.5514 144.464Z" fill="#2F2E41"/>
<path d="M511.83 3.95312C509.496 4.0807 507.245 4.83487 505.329 6.13109C503.414 7.4273 501.909 9.21431 500.984 11.2917C498.272 17.6358 501.764 25.0878 507.006 29.7139C512.248 34.3401 518.981 36.9844 525.099 40.4601C533.317 45.1285 540.701 51.6091 544.812 59.9279C548.924 68.2467 549.361 78.5513 544.528 86.4986C540.042 93.8751 531.885 98.2899 524.106 102.361" stroke="#3F3D56" stroke-miterlimit="10"/>
<path d="M518.737 9.00704C524.029 9.00704 528.318 6.99075 528.318 4.50352C528.318 2.0163 524.029 0 518.737 0C513.446 0 509.156 2.0163 509.156 4.50352C509.156 6.99075 513.446 9.00704 518.737 9.00704Z" fill="#493DC1"/>
<path d="M526.402 38.6789C531.694 38.6789 535.983 36.6626 535.983 34.1754C535.983 31.6882 531.694 29.6719 526.402 29.6719C521.111 29.6719 516.821 31.6882 516.821 34.1754C516.821 36.6626 521.111 38.6789 526.402 38.6789Z" fill="#493DC1"/>
<path d="M508.884 43.4446C514.175 43.4446 518.465 41.4283 518.465 38.941C518.465 36.4538 514.175 34.4375 508.884 34.4375C503.592 34.4375 499.303 36.4538 499.303 38.941C499.303 41.4283 503.592 43.4446 508.884 43.4446Z" fill="#493DC1"/>
<path d="M536.257 68.3469C541.548 68.3469 545.838 66.3306 545.838 63.8434C545.838 61.3561 541.548 59.3398 536.257 59.3398C530.965 59.3398 526.676 61.3561 526.676 63.8434C526.676 66.3306 530.965 68.3469 536.257 68.3469Z" fill="#493DC1"/>
<path d="M555.419 68.3469C560.71 68.3469 565 66.3306 565 63.8434C565 61.3561 560.71 59.3398 555.419 59.3398C550.127 59.3398 545.838 61.3561 545.838 63.8434C545.838 66.3306 550.127 68.3469 555.419 68.3469Z" fill="#493DC1"/>
</g>
<defs>
<clipPath id="clip0">
<rect width="565" height="393" fill="white"/>
</clipPath>
</defs>
</svg>
